<?xml version="1.0" encoding="iso-8859-1"?>
<!-- Generator: Adobe Illustrator 19.0.0, SVG Export Plug-In . SVG Version: 6.00 Build 0)  -->
<svg version="1.1" id="Layer_1" xmlns="http://www.w3.org/2000/svg" xmlns:xlink="http://www.w3.org/1999/xlink" x="0px" y="0px"
	 viewBox="0 0 511.999 511.999" style="enable-background:new 0 0 511.999 511.999;" xml:space="preserve">
<g>
	<path style="fill:#F4D853;" d="M72.762,398.748V287.931h98.532c2.197,0,3.977-1.78,3.977-3.977v-52.525
		c0-2.197-1.78-3.977-3.977-3.977H72.762v-57.28H178.5c2.197,0,3.977-1.78,3.977-3.977V113.25c0-2.197-1.78-3.977-3.977-3.977H3.977
		c-2.197,0-3.977,1.78-3.977,3.977v285.498c0,2.197,1.78,3.977,3.977,3.977h64.809C70.982,402.725,72.762,400.945,72.762,398.748z"
		/>
	<path style="fill:#F4D853;" d="M448.289,399.914l63.535-207.135c0.371-1.206,0.146-2.516-0.603-3.53
		c-0.751-1.015-1.937-1.613-3.199-1.613h-63.115c-1.872,0-3.49,1.306-3.886,3.135l-17.804,82.25
		c-2.959,15.062-6.186,32.127-8.94,49.917c-3.482-16.802-7.413-33.431-11.257-49.696l-20.758-82.6
		c-0.444-1.767-2.033-3.008-3.857-3.008h-50.83c-1.813,0-3.396,1.226-3.849,2.981l-22.034,85.171
		c-3.724,14.893-7.805,31.217-11.391,48.097c-2.943-17.957-6.143-34.745-8.806-48.318l-16.519-84.716
		c-0.366-1.867-2.001-3.215-3.904-3.215h-65.656c-1.25,0-2.429,0.589-3.18,1.589c-0.752,0.999-0.988,2.295-0.638,3.496
		l60.15,207.135c0.493,1.699,2.049,2.868,3.818,2.868h60.574c1.777,0,3.339-1.179,3.824-2.887l20.76-72.869
		c4.203-14.876,7.463-28.848,10.269-44.208c2.943,15.811,5.932,29.51,9.593,44.154l19.486,72.859
		c0.464,1.739,2.041,2.949,3.841,2.949h60.574C446.235,402.725,447.778,401.585,448.289,399.914z"/>
</g>
<g>
</g>
<g>
</g>
<g>
</g>
<g>
</g>
<g>
</g>
<g>
</g>
<g>
</g>
<g>
</g>
<g>
</g>
<g>
</g>
<g>
</g>
<g>
</g>
<g>
</g>
<g>
</g>
<g>
</g>
</svg>
